<?xml version="1.0" standalone="no"?>
<!DOCTYPE svg PUBLIC "-//W3C//DTD SVG 20010904//EN"
 "http://www.w3.org/TR/2001/REC-SVG-20010904/DTD/svg10.dtd">
<svg version="1.0" xmlns="http://www.w3.org/2000/svg"
 width="482.000000pt" height="482.000000pt" viewBox="0 0 482.000000 482.000000"
 preserveAspectRatio="xMidYMid meet">
<metadata>
Created by potrace 1.14, written by Peter Selinger 2001-2017
</metadata>
<g transform="translate(0.000000,482.000000) scale(0.100000,-0.100000)"
fill="#000000" stroke="none">
<path d="M1682 3582 c-9 -12 -11 -12 -7 -2 4 9 1 8 -8 -3 -10 -12 -17 -15 -22
-7 -5 8 -11 8 -19 1 -9 -7 -16 -7 -24 1 -7 7 -12 8 -12 2 0 -7 -18 -8 -49 -4
-32 4 -48 3 -44 -4 4 -5 -1 -7 -11 -3 -10 4 -19 1 -23 -9 -5 -13 -7 -13 -14
-2 -7 10 -9 10 -9 0 0 -10 -5 -10 -21 -1 -13 7 -19 7 -15 1 3 -6 2 -13 -4 -17
-5 -3 -10 0 -10 7 0 10 -2 10 -9 -1 -5 -7 -14 -10 -20 -7 -6 4 -11 2 -11 -4 0
-7 -7 -9 -16 -6 -9 4 -13 2 -8 -5 4 -7 1 -10 -7 -7 -7 2 -20 -3 -29 -12 -8 -9
-11 -10 -5 -1 9 12 7 12 -12 2 -13 -6 -23 -17 -23 -22 0 -6 -6 -9 -14 -6 -8 3
-17 -1 -20 -10 -4 -8 -13 -13 -21 -9 -8 3 -14 2 -14 -2 4 -26 -16 -43 -56 -47
-5 0 -9 -7 -7 -14 1 -7 -7 -15 -18 -18 -11 -3 -18 -8 -16 -12 3 -4 -4 -7 -14
-8 -21 -2 -79 -61 -80 -81 0 -7 -5 -10 -11 -6 -8 5 -10 -1 -7 -19 3 -15 2 -24
-2 -22 -4 3 -15 -10 -24 -28 -8 -17 -16 -26 -16 -18 0 14 -14 7 -16 -7 -3 -21
-18 -41 -27 -35 -6 4 -8 0 -4 -10 3 -10 2 -17 -4 -17 -6 0 -7 -4 -4 -10 3 -5
2 -10 -4 -10 -6 0 -8 -7 -5 -15 4 -8 11 -12 17 -8 6 3 7 1 3 -6 -4 -6 -12 -9
-17 -6 -8 6 -13 -8 -10 -27 0 -5 -4 -8 -9 -8 -6 0 -10 -7 -10 -15 0 -8 -4 -15
-10 -15 -5 0 -10 -7 -10 -15 0 -8 -5 -15 -11 -15 -6 0 -9 -6 -6 -14 3 -7 0
-19 -6 -26 -9 -10 -9 -11 3 -5 12 6 13 5 2 -6 -6 -7 -12 -26 -12 -41 0 -15 -5
-28 -11 -28 -8 0 -8 -4 0 -14 8 -9 8 -15 1 -18 -5 -1 -12 -31 -14 -66 -3 -34
-8 -66 -11 -71 -3 -6 -2 -12 3 -15 11 -7 15 -76 4 -90 -13 -17 -8 -41 8 -38
10 2 8 -3 -5 -19 -11 -12 -14 -19 -6 -14 11 6 13 4 8 -8 -4 -12 -1 -17 11 -17
12 0 13 -3 5 -8 -13 -8 -14 -52 -1 -52 4 0 8 -11 8 -24 0 -13 10 -31 22 -40
19 -14 19 -16 4 -11 -16 5 -17 3 -6 -10 7 -8 9 -15 6 -15 -4 0 2 -13 14 -30
12 -16 19 -34 16 -39 -3 -5 1 -11 9 -15 8 -3 15 -16 15 -29 0 -14 7 -30 15
-37 9 -7 13 -20 10 -29 -3 -8 -3 -12 1 -9 8 8 34 -14 27 -24 -2 -5 3 -8 12 -8
9 0 14 -4 11 -9 -3 -4 8 -19 24 -31 16 -12 27 -28 23 -34 -3 -6 -3 -8 1 -4 9
7 22 -2 64 -42 14 -14 22 -18 17 -10 -4 8 6 0 23 -17 17 -18 40 -33 50 -33 23
0 45 -23 34 -36 -4 -4 1 -2 11 5 9 7 17 9 17 3 0 -9 30 -23 55 -26 6 -1 13 -5
17 -11 5 -6 8 -4 8 5 1 12 3 11 14 -3 8 -11 17 -14 20 -8 4 6 16 5 32 -4 15
-7 35 -12 45 -10 11 2 19 -1 19 -6 0 -6 4 -7 10 -4 5 3 18 1 29 -4 14 -8 21
-8 24 2 3 7 6 4 6 -6 1 -15 5 -16 21 -7 14 8 20 8 20 0 0 -8 6 -8 20 0 14 8
20 8 20 0 0 -7 6 -8 17 -1 10 5 26 5 40 0 15 -6 23 -5 23 2 0 7 11 9 25 7 18
-4 25 -1 25 11 0 14 2 14 10 1 8 -13 14 -8 12 10 0 3 13 7 29 8 18 1 28 -2 25
-7 -4 -6 5 -6 24 -1 17 5 28 5 25 0 -3 -4 8 -16 23 -25 15 -10 31 -24 35 -32
5 -7 13 -10 19 -7 7 5 9 1 5 -9 -4 -12 -1 -17 11 -17 13 0 14 -2 4 -9 -11 -7
-11 -9 2 -14 9 -4 15 -12 14 -19 -2 -7 3 -12 10 -10 11 2 16 -10 13 -30 0 -5
6 -8 16 -8 9 0 14 -3 10 -6 -3 -3 7 -19 23 -34 16 -15 26 -31 23 -34 -4 -3 6
-6 21 -6 15 0 25 -4 22 -9 -3 -5 1 -12 10 -15 8 -3 12 -2 9 4 -3 6 -4 10 0 10
3 0 10 -10 15 -22 7 -19 9 -19 9 -5 1 10 6 15 11 12 6 -4 8 -10 5 -15 -3 -4 4
-6 15 -3 12 3 20 2 19 -3 -4 -23 2 -45 11 -39 5 3 14 -13 21 -35 7 -22 15 -40
19 -40 4 0 7 -6 7 -13 0 -14 52 -98 68 -109 5 -4 6 -8 2 -8 -4 0 6 -15 22 -33
17 -17 31 -38 31 -44 0 -7 4 -13 9 -13 11 0 91 -80 91 -91 0 -5 4 -9 8 -9 5 0
17 -8 28 -17 38 -34 143 -103 157 -103 7 0 17 -4 22 -8 6 -5 30 -14 55 -21 25
-7 54 -17 65 -21 64 -26 228 -39 355 -27 73 7 162 27 178 39 6 6 12 8 12 5 0
-9 117 42 161 69 20 13 40 20 43 17 3 -4 6 -1 6 6 0 8 7 11 15 7 8 -3 15 -1
15 4 0 5 11 15 24 22 42 23 192 150 220 187 12 14 31 37 44 51 12 14 35 43 50
65 15 22 31 43 37 47 5 4 7 8 2 8 -4 0 9 22 28 50 19 27 32 50 28 50 -5 0 -3
4 3 8 7 4 32 50 56 102 53 113 65 145 72 185 3 17 12 49 21 73 8 24 13 48 10
53 -4 5 -2 9 3 9 5 0 10 15 11 33 4 67 7 86 12 91 3 3 4 70 1 148 -5 176 -6
188 -12 188 -5 0 -10 25 -12 60 0 8 -5 21 -11 28 -5 6 -6 12 -2 12 4 0 2 7 -5
15 -7 8 -10 15 -6 15 4 0 0 13 -8 29 -9 16 -12 31 -9 35 4 3 2 6 -3 6 -5 0
-10 9 -11 21 -2 21 -59 143 -78 166 -5 7 -15 19 -22 27 -6 7 -9 17 -6 20 4 3
-1 6 -10 6 -10 0 -16 4 -15 8 3 10 -68 92 -79 92 -5 0 -18 13 -31 29 -12 16
-36 34 -52 41 -17 7 -30 16 -30 21 0 5 -7 9 -15 9 -8 0 -15 4 -15 8 0 8 -60
36 -72 33 -5 0 -8 4 -8 10 0 5 -4 8 -9 5 -5 -3 -12 1 -15 9 -3 8 -9 14 -13 13
-4 -1 -26 6 -47 15 -21 10 -53 20 -70 23 -17 3 -34 10 -38 17 -4 6 -10 9 -13
5 -4 -4 -27 -1 -51 7 -25 7 -44 9 -44 4 0 -6 -8 -5 -19 1 -21 11 -251 8 -270
-4 -6 -4 -24 -9 -39 -12 -28 -4 -64 -11 -72 -14 -3 -1 -9 -2 -14 -1 -5 1 -12
-2 -15 -6 -6 -8 -88 -40 -124 -48 -9 -2 -21 -6 -26 -10 -5 -3 -18 6 -29 20
-14 17 -22 21 -25 13 -4 -10 -6 -10 -6 -1 -1 7 -8 10 -16 7 -8 -4 -15 -2 -15
3 0 6 -23 8 -52 6 -94 -7 -159 -3 -151 10 3 5 -4 4 -16 -2 -11 -7 -21 -8 -21
-2 0 5 -18 8 -39 7 -49 -3 -81 9 -81 29 0 8 -4 15 -10 15 -5 0 -10 7 -10 15 0
9 -7 18 -15 21 -8 4 -13 10 -10 14 7 11 -116 141 -126 134 -5 -3 -9 2 -9 11 0
9 -4 13 -10 10 -5 -3 -10 -1 -10 4 0 6 -7 11 -16 11 -8 0 -13 4 -10 8 2 4 -5
9 -16 9 -11 1 -26 10 -34 20 -7 10 -14 14 -14 9 0 -5 -9 1 -20 14 -11 13 -20
19 -20 14 0 -5 -4 -4 -8 1 -12 16 -47 41 -38 28 5 -9 2 -11 -8 -7 -9 3 -16 9
-16 13 0 4 -7 8 -15 9 -8 1 -22 3 -30 4 -8 1 -15 5 -15 10 0 5 -10 9 -22 8
-13 -1 -25 -1 -28 0 -3 1 -13 3 -23 5 -11 2 -21 6 -25 9 -3 3 -14 -2 -25 -11
-11 -10 -17 -13 -14 -7 4 7 0 15 -9 18 -25 10 -36 7 -29 -6 4 -7 0 -5 -7 4
-13 15 -15 15 -26 0z"/>
</g>
</svg>
